<svg width="69" height="61" viewBox="0 0 69 61" fill="none" xmlns="http://www.w3.org/2000/svg">
<path d="M68.186 31.7504C66.5294 28.0117 63.8194 26.7844 58.1724 27.3591C58.0021 25.8515 57.6864 24.3404 57.6935 22.8258C57.6935 21.0522 57.1685 19.4986 55.8277 18.4238C54.4088 17.2923 52.9155 16.0614 51.2412 15.508C47.5664 14.2949 43.7745 13.4046 39.9968 12.5391C37.7408 12.0248 37.3258 12.4823 37.2123 14.8696C39.0745 15.1711 40.9829 15.2952 42.7813 15.8131C45.8815 16.707 48.9533 17.7357 51.9542 18.9204C53.3731 19.4738 54.7919 20.4315 54.8274 22.2086C54.8664 24.0957 53.3057 24.9257 51.9116 25.6671C50.5096 26.4187 49.0392 27.0352 47.5203 27.5081C37.9501 30.3954 28.2202 30.5834 18.4124 29.083C14.3154 28.4587 10.2859 27.508 6.70679 25.2875C3.5924 23.3543 3.62432 21.1799 6.74226 19.2184C7.57387 18.6586 8.47393 18.208 9.42036 17.8775C12.1765 17.0262 14.9255 15.9798 17.7526 15.6074C19.9696 15.3165 20.5903 14.1885 20.8883 12.2837C16.2664 12.8477 11.7579 13.6706 7.55456 15.6535C4.09964 17.2852 1.10939 19.3283 1.61664 23.8616C1.6133 24.0388 1.58341 24.2146 1.52796 24.383C0.654667 28.4448 0.701936 32.6505 1.6663 36.6916C4.47564 48.266 11.3748 56.2541 23.0627 59.1486C34.5235 61.9863 44.1115 58.2086 51.6633 49.245C53.0503 47.6097 54.1144 45.6694 55.3382 43.8746C59.3571 46.2476 62.5105 46.1057 65.5965 43.4206C68.789 40.6396 69.9028 35.6133 68.186 31.7504ZM44.9734 52.0153C40.8571 55.1978 35.852 57.0198 30.6531 57.2283C25.4541 57.4368 20.3192 56.0215 15.9613 53.1788C6.33079 46.9535 2.61693 35.3437 4.00032 27.4158C21.1756 34.7088 38.1487 34.7052 55.2247 27.4478C56.6542 33.2473 54.0399 45.1267 44.9734 52.0153ZM62.0387 42.328C60.8115 42.6556 59.5186 42.6458 58.2965 42.2997C56.9344 41.9449 56.3491 41.0333 56.8776 39.3271C57.5587 36.8904 58.0194 34.3974 58.2539 31.8781C58.3958 30.6757 58.9634 30.2394 59.9459 29.9911C63.3335 29.1326 66.2279 31.7646 66.2173 35.7268C66.2031 38.6638 64.5537 41.5228 62.0387 42.328Z" fill="white"/>
<path d="M23.3221 10.9823C22.7753 12.0242 22.3012 13.1028 21.9032 14.2102C20.5731 17.5835 20.5057 21.0526 21.0058 24.7416L23.7797 24.355C22.7226 19.2329 24.5352 14.8593 26.5074 10.4466C28.1178 6.84628 26.7132 2.83446 23.2192 0.0996094L21.4031 1.75613C21.8004 2.27401 22.1125 2.69967 22.4389 3.11114C24.3721 5.55158 24.9183 8.11971 23.3221 10.9823Z" fill="white"/>
<path d="M33.1844 12.5357C32.9564 12.9489 32.7641 13.3809 32.6098 13.8269C31.2228 17.3137 30.9639 20.8963 31.6095 24.7166L34.3656 24.3974C33.4043 19.6158 34.7416 15.5295 36.6713 11.5177C38.7321 7.22917 37.7354 3.42663 33.8619 0.078125L31.8826 1.87653C35.4688 5.16828 35.5255 8.72962 33.1844 12.5357Z" fill="white"/>
<path d="M31.691 11.9644C27.5444 11.521 27.1578 11.7267 26.6328 14.5431C30.7581 14.8376 30.7581 14.8376 31.691 11.9644Z" fill="white"/>
</svg>
