<svg width="32" height="73" viewBox="0 0 32 73" fill="none" xmlns="http://www.w3.org/2000/svg">
<path d="M31.9339 19.0633C31.7914 18.8951 31.0139 18.8951 30.5493 18.8951C29.3803 18.8951 28.2129 18.8905 27.047 18.8811C25.7535 18.8811 24.4592 18.8811 23.1641 18.8811C20.8713 18.8811 19.0058 18.9022 17.292 18.9489H17.1285C15.6062 18.9489 14.9314 18.3114 14.7937 16.7494C14.6466 15.045 14.4691 13.3148 14.301 11.6384C14.1236 9.91295 13.9438 8.13613 13.792 6.36864C13.5188 3.23293 12.1646 1.13155 10.0749 0.589867C8.62312 0.231608 7.1316 0.0597803 5.63636 0.0785328C4.08368 0.0785328 2.49364 0.223294 1.06238 0.36572C0.968981 0.940095 0.884926 1.60086 1.004 1.74095C1.12308 1.88104 1.9216 1.89272 2.40492 1.89272H2.96061H5.16706C5.83949 1.89272 6.72674 1.89272 7.62566 1.91607C10.2711 1.9721 11.5506 3.13019 11.9031 5.78492L11.9568 6.18419C12.1133 7.36329 12.2767 8.58208 12.4004 9.7892C12.6012 11.7715 12.7857 13.7211 12.9818 15.7851L13.269 18.8204L12.781 18.8461L12.0806 18.8858C11.658 18.9138 11.2961 18.9348 10.9295 18.9372H9.17601C8.27319 18.9372 7.37038 18.9372 6.46757 18.9372C5.19741 18.9372 4.14439 18.9372 3.15908 18.9045H3.047C2.58003 18.9045 2.27884 18.9815 2.15042 19.138C2.022 19.2944 2.02667 19.64 2.06636 19.8921C2.2298 20.8588 2.36523 21.8557 2.49831 22.813C2.80885 25.0802 3.12872 27.4244 3.75914 29.6238C5.98192 37.3966 6.98591 44.4081 6.82714 51.0531C6.73141 55.0924 6.69172 59.2041 6.65202 63.1804C6.64113 64.4552 6.6279 65.7308 6.61233 67.0072C6.59832 68.247 6.61233 69.4658 6.61233 70.7547V71.2216C6.61295 71.4475 6.70293 71.6639 6.86262 71.8236C7.02231 71.9833 7.23872 72.0732 7.46456 72.0739H26.4236C26.5357 72.0739 26.6467 72.0517 26.7503 72.0088C26.8538 71.9658 26.9479 71.9028 27.027 71.8234C27.1062 71.744 27.1689 71.6498 27.2116 71.5462C27.2543 71.4425 27.2761 71.3314 27.2758 71.2193V70.6986C27.2758 68.7677 27.2758 66.8041 27.2968 64.9058C27.3249 60.5957 27.3552 56.1385 27.1848 51.7676C26.9513 45.5709 27.7568 39.2201 29.7531 31.7789C30.7267 28.1435 31.3175 24.4311 31.9339 20.3031C31.9666 20.0439 32.088 19.2407 31.9339 19.0633ZM5.26512 28.9023C4.82383 27.0531 4.45025 25.2226 4.05333 23.2847C3.92725 22.6613 3.79883 22.0309 3.66574 21.3981L3.549 20.8354H13.5118L14.4178 29.2642L13.9508 29.3203L12.0992 29.5538C10.257 29.7873 8.51524 30.0044 6.7711 30.1492H6.70806C6.13369 30.1422 5.38186 29.4324 5.26512 28.9023ZM26.4143 37.2518C25.3776 42.3885 25.4056 47.7096 25.436 52.844C25.436 54.2869 25.4523 55.7789 25.436 57.2475C25.4126 59.5824 25.4173 61.9593 25.4219 64.2521C25.4219 65.597 25.4219 66.9418 25.4219 68.2844C25.4219 68.6603 25.3963 69.0292 25.3706 69.4191C25.3706 69.5989 25.3472 69.788 25.3379 69.9818L25.3145 70.4255H8.41718V66.7621C8.41718 64.4646 8.41718 62.2184 8.41718 59.9723C8.41718 58.6445 8.4234 57.3144 8.43586 55.982C8.45453 53.1802 8.47321 50.2873 8.43586 47.4411C8.41819 44.9759 8.25603 42.5139 7.95021 40.0676C7.71672 38.3935 7.36416 36.7521 6.98124 35.0173C6.81313 34.2585 6.64035 33.4717 6.47691 32.6825L6.39986 32.3089L6.75242 32.1595C8.10165 31.5707 9.55554 31.2595 11.0275 31.2442C11.9021 31.2435 12.7726 31.3629 13.6146 31.5991C14.273 31.7836 14.782 32.7665 14.8567 33.3619C15.5712 39.7267 16.2576 46.2036 16.9137 52.4657L17.306 56.1852C17.4616 57.6001 17.6095 59.015 17.7496 60.4299C17.9224 62.0783 18.0959 63.7267 18.2703 65.3752C18.3707 66.3091 18.5715 66.4772 19.1248 66.4772C19.2066 66.4772 19.2976 66.4772 19.3933 66.4632C19.6245 66.4623 19.8478 66.3796 20.0238 66.2297C20.1498 66.0709 20.1101 65.7207 20.0658 65.3495L20.0448 65.172C19.6727 61.7678 19.2992 58.3597 18.924 54.9477C18.4353 50.5037 17.9504 46.0604 17.4694 41.618C17.271 39.7781 17.1028 37.9429 16.9231 36.0003C16.839 35.0827 16.7526 34.1324 16.6592 33.1705L16.5892 32.4303L19.0291 33.3339C21.378 34.2025 23.5984 35.0243 25.8002 35.8836C26.2765 36.068 26.4983 36.8385 26.4143 37.2518ZM30.108 21.3001C29.9843 24.3354 29.1997 27.1372 28.3662 30.1001C28.009 31.3703 27.6401 32.6872 27.3225 34.0367L27.1988 34.5597L26.6991 34.3636L24.446 33.4857C21.9757 32.5331 19.6408 31.6131 17.2896 30.6418C16.7386 30.4083 16.316 29.6635 16.239 29.0985C15.9821 27.1909 15.772 25.316 15.5642 23.3314C15.4941 22.6698 15.4217 22.0036 15.347 21.3327L15.2887 20.8144H30.1314L30.108 21.3001Z" fill="#E4683F"/>
<path d="M9.98948 45.4505L10.6187 43.0279C10.6824 42.7828 10.8408 42.573 11.0592 42.4447C11.2775 42.3164 11.5379 42.2801 11.7831 42.3437L14.2057 42.973C14.4508 43.0366 14.6606 43.1951 14.7889 43.4134C14.9172 43.6318 14.9535 43.8922 14.8899 44.1373L14.2606 46.5599C14.1971 46.8044 14.0391 47.0137 13.8212 47.1417C13.6034 47.2697 13.3437 47.306 13.0991 47.2424L10.6743 46.6126C10.4295 46.5491 10.22 46.391 10.0916 46.1732C9.96324 45.9553 9.92651 45.6954 9.98948 45.4505Z" fill="#E4683F"/>
<path d="M21.6437 36.5517L19.3405 37.5256C18.8547 37.731 18.6274 38.2913 18.8328 38.777L19.8067 41.0802C20.0121 41.566 20.5724 41.7933 21.0582 41.5879L23.3614 40.614C23.8471 40.4086 24.0744 39.8483 23.869 39.3626L22.8952 37.0594C22.6898 36.5736 22.1295 36.3463 21.6437 36.5517Z" fill="#E4683F"/>
<path d="M19.8214 49.3371L19.5323 51.821C19.4713 52.3449 19.8466 52.819 20.3704 52.88L22.8543 53.1691C23.3782 53.2301 23.8523 52.8548 23.9133 52.331L24.2024 49.8471C24.2634 49.3232 23.8882 48.8491 23.3643 48.7881L20.8804 48.499C20.3565 48.438 19.8824 48.8133 19.8214 49.3371Z" fill="#E4683F"/>
<path d="M14.3097 53.8867L11.8129 54.0245C11.2863 54.0536 10.8829 54.504 10.912 55.0307L11.0499 57.5275C11.0789 58.0541 11.5294 58.4574 12.056 58.4283L14.5528 58.2905C15.0794 58.2614 15.4828 57.811 15.4537 57.2844L15.3159 54.7875C15.2868 54.2609 14.8363 53.8576 14.3097 53.8867Z" fill="#E4683F"/>
<path d="M10.3918 65.571L10.1026 68.0549C10.0416 68.5787 10.4169 69.0529 10.9407 69.1138L13.4246 69.403C13.9485 69.464 14.4226 69.0887 14.4836 68.5649L14.7727 66.081C14.8337 65.5571 14.4585 65.083 13.9346 65.022L11.4507 64.7329C10.9269 64.6719 10.4527 65.0471 10.3918 65.571Z" fill="#E4683F"/>
</svg>
