<svg width="33" height="73" viewBox="0 0 33 73" fill="none" xmlns="http://www.w3.org/2000/svg">
<g clip-path="url(#clip0_24848_60490)">
<path d="M29.5074 20.7401C25.1016 18.536 33.402 13.2826 22.0546 11.0411C22.755 8.9187 23.759 5.11055 22.246 3.238C20.2661 0.249378 14.9986 -0.558483 11.6668 0.746703C19.15 6.74729 10.3196 8.858 5.72225 11.891C2.19194 13.8616 3.16791 17.5553 4.27464 20.663C-2.35636 24.205 0.487498 26.7593 1.27201 32.1295C1.29302 36.5658 4.52213 36.4163 5.72925 39.4656C7.72089 46.601 9.5771 53.6686 11.487 60.7595C12.3112 63.8112 13.1891 67.0637 14.0997 70.2344C14.4546 71.4765 15.1854 72.0813 16.3342 72.0813C18.1157 72.198 18.7391 70.6477 19.059 69.1417C19.6147 67.0948 20.1696 65.0456 20.7237 62.994C22.8251 55.2493 24.9872 47.2407 27.1656 39.3746C27.4494 38.4915 28.0196 37.7282 28.786 37.2055C30.5745 36.0171 31.4687 34.4294 31.6018 32.2159C32.3653 27.3781 35.1531 23.7754 29.5074 20.7401ZM17.1514 70.2391L15.8205 70.4725L13.6911 63.2345C19.3415 65.1117 18.7227 64.7171 17.1514 70.2321V70.2391ZM19.8108 56.4961C19.4045 56.5498 18.6433 56.9514 18.6433 57.1965C18.6433 57.2946 18.7391 57.4721 19.0566 57.6752C21.2304 58.929 19.171 61.7285 18.9422 63.5964C12.9486 61.0677 13.3386 62.1955 11.7158 55.6789L11.4823 54.836C12.6264 55.2236 13.6514 55.7816 14.8399 55.2726C14.6507 54.9014 14.4032 54.383 14.1534 54.2686C10.7912 52.744 9.23154 49.5219 9.60512 45.8141C9.46035 46.092 21.1837 50.6473 21.7884 52.4941C21.6693 53.9021 21.5129 56.1902 19.8108 56.4891V56.4961ZM22.5356 50.192C18.4496 48.6043 13.558 46.5496 9.04242 43.1034C7.75357 42.104 7.56445 39.9653 6.85932 38.5154L7.69987 37.5137C13.0864 38.6438 18.4145 42.5617 22.7644 44.6887C24.5669 46.0476 22.8368 48.4572 22.5356 50.1896V50.192ZM24.275 43.8365L14.2351 38.8376L14.4453 37.8406H25.9094L24.275 43.8365ZM19.3718 36.365C15.5497 36.365 11.445 36.3649 7.32629 36.3159C4.07851 36.3299 2.63323 34.5554 3.02315 31.4127C3.53652 31.2292 4.07998 31.1444 4.62487 31.1629C5.09184 31.1629 8.9747 31.1886 12.7548 31.0952C14.8399 31.2166 18.4192 30.9808 21.2584 31.1442H29.6989C31.3543 37.6818 23.3247 36.1968 19.3718 36.3579V36.365ZM30.6492 28.6786C27.9618 30.3457 23.5162 29.2506 20.2824 29.5682H16.9599C11.5057 29.2016 1.62691 30.1285 1.47281 26.0706C1.37708 24.4081 3.39439 22.4282 5.04514 22.4796C6.16587 22.2624 7.29594 24.4665 8.16217 23.5793C9.2152 23.0586 5.53546 19.5446 5.24827 18.3725C2.49081 12.9837 10.5461 11.7135 13.5954 9.0728C16.3669 7.45008 16.2945 4.92843 15.7388 2.14528C18.7437 0.87045 22.1036 4.0622 21.5059 7.17223C21.1864 9.48697 19.9832 11.5881 18.1484 13.0351C17.8472 13.2966 17.3172 13.5627 17.1304 13.8663C16.8595 14.45 16.8969 15.1504 17.7211 15.0337C19.2621 14.2912 20.5789 12.4887 22.678 12.6732C26.248 12.498 28.2583 16.2268 26.0238 19.2831C25.0899 20.4879 23.6493 21.618 23.1683 23.0469C23.7263 25.5102 26.4161 18.9072 30.2406 22.9512C31.5131 24.24 32.1598 27.3337 30.6445 28.6716L30.6492 28.6786Z" fill="#E4683F"/>
</g>
<defs>
<clipPath id="clip0_24848_60490">
<rect width="32.9729" height="71.937" fill="white" transform="translate(0 0.141602)"/>
</clipPath>
</defs>
</svg>
