<svg width="164" height="114" viewBox="0 0 164 114" fill="none" xmlns="http://www.w3.org/2000/svg">
<g clip-path="url(#clip0_24839_60497)">
<path d="M77.5315 0.522358C73.1317 1.42912 69.0896 3.15964 66.612 7.21453C64.1982 11.1673 66.1203 14.8326 70.718 14.8773C72.921 14.8773 75.1432 14.2835 77.3271 13.8109C78.4255 13.5747 78.8405 13.8812 78.6043 14.9156C78.3361 16.1545 77.9657 17.3805 77.5953 18.6002C76.3182 22.8083 74.9006 26.9654 73.8661 31.2246C72.8316 35.4839 75.2071 38.2489 79.6771 38.2489C83.0359 38.2073 86.2713 36.9765 88.8086 34.7751C92.0589 32.1378 94.1661 28.8747 93.8532 24.475C93.6936 22.1953 92.7741 20.2732 90.6604 19.2324C88.5467 18.1915 86.7268 18.8811 85.124 20.2604C83.8359 21.423 82.6123 22.6552 81.4587 23.9514C80.7498 24.7113 80.1432 25.5605 79.4919 26.3715L79.2939 26.2566C80.9414 21.2119 82.591 16.1694 84.2428 11.1289L83.815 10.8288C83.2977 10.9757 82.7805 11.1098 82.276 11.2822C80.3603 11.9208 78.4446 12.7764 76.4523 13.1596C74.355 13.6054 72.205 13.7516 70.0666 13.5938C67.225 13.3192 66.1841 11.0395 67.6656 8.56829C68.3813 7.3958 69.3234 6.37768 70.437 5.57342C74.0577 2.98084 78.1828 2.08685 82.6145 2.18263C95.6221 2.45721 105.603 14.9029 102.908 27.5401C101.806 32.965 98.5958 37.7308 93.9828 40.791C89.3697 43.8512 83.7308 44.9557 78.3041 43.8619C66.4715 41.4481 58.5724 30.0433 60.9862 18.5491C61.5418 15.899 62.6593 13.3703 63.4766 10.8863C63.5596 10.8352 63.4128 10.8863 63.3425 10.9757C63.0052 11.4382 62.6919 11.9178 62.4038 12.4125C58.1574 20.0178 58.0871 27.7381 62.5507 35.1454C67.1548 42.8082 74.1918 46.4417 83.1509 45.9627C96.3373 45.2539 106.318 32.9232 104.6 19.6219C104.21 16.5294 103.179 13.5523 101.574 10.8804C99.9686 8.20851 97.8242 5.90044 95.2774 4.10341C92.7305 2.30638 89.8371 1.05983 86.7817 0.44326C83.7263 -0.173312 80.5759 -0.146374 77.5315 0.522358ZM85.3922 21.8952C85.8276 21.6278 86.3167 21.46 86.8245 21.4037C87.3323 21.3474 87.8463 21.404 88.3296 21.5695C88.5982 21.7182 88.8195 21.9395 88.9682 22.2081C89.2618 22.6925 89.4545 23.2312 89.5346 23.792C89.6147 24.3527 89.5806 24.9239 89.4344 25.4711C88.2466 30.1965 86.1202 33.9577 81.861 36.3268C81.5014 36.5225 81.1198 36.6747 80.7243 36.7802C77.9785 37.5209 76.3693 36.3523 76.9568 34.0599C78.1013 29.0718 81.122 24.7157 85.3922 21.8952Z" fill="#E05729"/>
<path d="M12.7581 62.2291C11.8809 62.2492 11.0149 62.431 10.2038 62.7655C9.22976 63.1528 8.32424 63.6939 7.52182 64.3683C6.49087 65.2593 5.57108 66.2712 4.78237 67.3824L7.06844 57.1206C7.40688 55.5817 7.61761 54.643 7.70701 54.3045L7.34302 54.0044C5.26278 54.7357 3.10502 55.2242 0.91266 55.4603L0.682776 56.4118H1.85135C2.23592 56.3776 2.62312 56.4345 2.98161 56.5778C3.07358 56.6335 3.14806 56.714 3.1966 56.8099C3.24514 56.9059 3.26579 57.0135 3.2562 57.1206C3.2562 57.6229 2.85603 60.0197 2.05569 64.3109L0.778562 71.3351C0.563216 72.3877 0.426611 73.455 0.369879 74.5279C0.331881 75.0031 0.39725 75.4809 0.561495 75.9285C0.725741 76.376 0.984966 76.7827 1.32134 77.1205C2.17917 77.779 3.25107 78.0954 4.32899 78.0081C6.1936 78.0081 8.19019 77.2589 10.3187 75.7604C11.7469 74.8016 12.8933 73.4789 13.6393 71.929C14.5176 70.0681 14.9713 68.0352 14.9675 65.9775C15.0359 64.9304 14.7938 63.8864 14.2715 62.9763C14.1057 62.7311 13.8791 62.5333 13.6137 62.4023C13.3484 62.2713 13.0535 62.2116 12.7581 62.2291ZM10.2613 71.897C9.83943 73.299 9.08845 74.5799 8.07099 75.6326C7.56154 76.1442 6.8768 76.4432 6.15529 76.4692C5.84923 76.4804 5.54433 76.4258 5.2612 76.309C4.97808 76.1922 4.72332 76.016 4.51417 75.7923C4.0565 75.2381 3.82805 74.5299 3.87561 73.8127C3.87858 72.218 4.22031 70.6422 4.87816 69.1895C5.42905 67.8428 6.29126 66.6457 7.39411 65.6965C8.39666 64.8792 9.23956 64.4705 9.91006 64.4705C10.0975 64.4784 10.2793 64.5365 10.4365 64.6388C10.5938 64.741 10.7207 64.8836 10.8041 65.0516C11.1036 65.6433 11.234 66.3062 11.1808 66.9673C11.1592 68.6511 10.8481 70.3186 10.2613 71.897Z" fill="white"/>
<path d="M31.3688 75.0453C31.1868 75.1614 30.9822 75.2376 30.7686 75.2688C30.4493 75.2688 30.2961 75.0836 30.2961 74.7132C30.2961 73.9001 30.7218 71.944 31.5732 68.8448C32.2671 66.2905 32.8844 64.1896 33.425 62.5421L33.1568 62.2292C32.0264 62.5975 30.8515 62.8123 29.6639 62.8678C29.5654 63.8202 29.3947 64.7638 29.153 65.6903C28.827 66.977 28.369 68.2267 27.7865 69.4195C27.2001 70.6739 26.4647 71.8531 25.5962 72.9316C25.0054 73.7289 24.3045 74.4384 23.5145 75.0389C23.2647 75.2251 22.9689 75.3399 22.6588 75.3709C22.583 75.3752 22.5072 75.3619 22.4374 75.332C22.3676 75.302 22.3057 75.2564 22.2565 75.1985C22.1429 75.0487 22.0884 74.8623 22.1032 74.6749C22.1208 74.2919 22.1742 73.9113 22.2629 73.5382C22.4928 72.359 22.7844 71.1181 23.1377 69.8154L24.07 66.3671C24.3706 65.4259 24.5614 64.4531 24.6384 63.4681C24.6716 63.1245 24.576 62.7809 24.3702 62.5038C24.2632 62.4032 24.1363 62.3262 23.9977 62.2778C23.8591 62.2294 23.7119 62.2107 23.5656 62.2229C22.6935 62.3209 21.8551 62.6157 21.1135 63.0849C19.8226 63.8051 18.5791 64.6071 17.3906 65.4859L17.7674 66.3863C19.0445 65.5498 19.8555 65.1092 20.1684 65.1092C20.2331 65.1076 20.2972 65.1219 20.3551 65.1509C20.413 65.1798 20.4629 65.2225 20.5004 65.2752C20.5967 65.4178 20.6418 65.5889 20.6282 65.7605C20.4192 67.3976 20.0579 69.0117 19.549 70.5817L19.0892 72.2739C18.7252 73.5893 18.4953 74.4833 18.4123 74.9559C18.3383 75.3151 18.3019 75.6811 18.3038 76.0478C18.2549 76.577 18.3952 77.1064 18.6997 77.5421C18.8337 77.6984 19.0019 77.8217 19.1913 77.9026C19.3806 77.9834 19.5861 78.0196 19.7916 78.0082C20.6984 78.0082 21.8627 77.4292 23.2846 76.2713C25.2799 74.6295 26.9443 72.6227 28.1888 70.3582L27.2692 73.8192C26.9807 74.7498 26.7944 75.7091 26.7137 76.68C26.69 77.0325 26.7893 77.3823 26.9947 77.6698C27.0842 77.7805 27.1984 77.8688 27.3281 77.9276C27.4578 77.9864 27.5995 78.014 27.7418 78.0082C28.095 78.0039 28.4449 77.9392 28.7763 77.8166C29.4071 77.5431 30.0101 77.2095 30.577 76.8205L33.4506 74.7451L33.1377 73.8448C32.5856 74.2976 31.9936 74.6995 31.3688 75.0453Z" fill="white"/>
<path d="M45.7345 62.2288C44.6532 62.2377 43.5903 62.5094 42.6375 63.0206C41.2275 63.6837 39.9337 64.5699 38.8061 65.6451C37.9713 66.6019 37.3585 67.7315 37.0117 68.9529C36.4429 70.616 36.1286 72.3555 36.0794 74.1125C36.0427 74.6445 36.1175 75.1783 36.2989 75.6797C36.4803 76.1811 36.7644 76.6391 37.133 77.0244C37.9521 77.7261 39.0134 78.0791 40.0896 78.0078C40.8091 77.9943 41.5221 77.8694 42.2032 77.6374C43.1881 77.2929 44.1375 76.8545 45.0385 76.3284L47.7268 74.617L47.382 73.7486C46.4498 74.3786 45.4495 74.9013 44.3999 75.3067C43.6618 75.6091 42.8784 75.7861 42.0819 75.8303C41.413 75.8651 40.7571 75.6358 40.2556 75.1917C40.0246 74.9326 39.8488 74.629 39.739 74.2996C39.6292 73.9703 39.5877 73.622 39.617 73.276C39.6277 72.5468 39.7394 71.8226 39.9491 71.124C41.7258 70.9005 43.4612 70.4231 45.1023 69.7064C46.2452 69.233 47.2446 68.4691 48.0014 67.4906C48.5388 66.7166 48.8242 65.7956 48.8188 64.8533C48.8344 64.4926 48.7684 64.1331 48.6257 63.8014C48.4831 63.4697 48.2675 63.1745 47.995 62.9376C47.3543 62.4315 46.5495 62.1791 45.7345 62.2288ZM45.0959 67.2799C44.7127 67.9873 44.1597 68.5885 43.4868 69.0295C42.4104 69.6116 41.2585 70.0414 40.064 70.3067C40.3711 68.8476 40.8114 67.4197 41.3795 66.0411C41.6642 65.3477 42.1161 64.7356 42.6949 64.2595C43.1256 63.9392 43.6462 63.7627 44.1828 63.755C44.39 63.7437 44.5973 63.774 44.7925 63.8442C44.9878 63.9144 45.1669 64.023 45.3194 64.1637C45.4614 64.3066 45.5722 64.4775 45.6447 64.6654C45.7173 64.8534 45.75 65.0544 45.7409 65.2556C45.707 65.9734 45.4893 66.6704 45.1087 67.2799H45.0959Z" fill="white"/>
<path d="M64.8165 75.0136C64.5803 75.1756 64.3088 75.2785 64.0246 75.3137C63.782 75.3137 63.6606 75.1158 63.6606 74.7135C63.7203 73.474 63.9348 72.247 64.2992 71.0609L65.1038 68.1618C65.5814 66.7098 65.9046 65.2115 66.068 63.6918C66.094 63.2975 65.9709 62.9078 65.7232 62.5999C65.5919 62.4665 65.4329 62.3636 65.2575 62.2985C65.082 62.2334 64.8944 62.2077 64.7079 62.2231C64.1365 62.2465 63.5769 62.3924 63.0668 62.6509C62.0317 63.155 61.0711 63.7997 60.2124 64.5666C59.1911 65.4404 58.2527 66.4066 57.4091 67.453C56.8032 68.2731 56.2425 69.1258 55.7297 70.0072L56.3682 67.6381C56.6428 66.6228 56.8918 65.5181 57.1281 64.3176C57.2014 63.9472 57.242 63.5712 57.2494 63.1937C57.2621 63.0622 57.2483 62.9294 57.2088 62.8033C57.1693 62.6772 57.105 62.5602 57.0196 62.4594C56.929 62.378 56.8229 62.3157 56.7077 62.2762C56.5925 62.2367 56.4705 62.2208 56.3491 62.2295C55.9772 62.2357 55.6103 62.316 55.2699 62.4658C54.3554 62.9027 53.4851 63.4266 52.6709 64.0302L50.2891 65.831L50.6978 66.6867C51.2302 66.2608 51.8034 65.8886 52.4091 65.5756C52.6173 65.4465 52.8499 65.3617 53.0924 65.3265C53.335 65.3265 53.4564 65.4862 53.4564 65.8055C53.3944 66.6995 53.2771 67.5888 53.1051 68.4683C52.8689 69.8348 52.5687 71.1566 52.2175 72.4338L51.1575 76.0544C51.0106 76.5334 50.8255 77.057 50.6083 77.6253L50.9979 78.034C52.1235 77.6901 53.2847 77.4759 54.4589 77.3954C54.7571 75.261 55.357 73.1798 56.2405 71.2141C56.9965 69.5223 58.0473 67.9785 59.3439 66.6547C60.2507 65.748 60.9723 65.2946 61.4959 65.2946C61.6621 65.2867 61.8247 65.344 61.9493 65.4542C62.0065 65.5118 62.0509 65.5808 62.0795 65.6568C62.1081 65.7327 62.1203 65.8138 62.1153 65.8949C62.0412 66.6912 61.8981 67.4796 61.6875 68.2512C61.5853 68.762 61.3065 69.7965 60.851 71.3546L60.3465 73.1107C60.0012 74.1441 59.7867 75.2167 59.7079 76.3035C59.6685 76.7642 59.7662 77.2264 59.9889 77.6317C60.0942 77.7596 60.2285 77.8605 60.3807 77.926C60.5328 77.9916 60.6985 78.0198 60.8637 78.0085C61.6144 77.9628 62.3443 77.7443 62.9965 77.3699C64.3054 76.5929 65.5676 75.74 66.7769 74.8156L66.3809 73.8833C65.9055 74.3201 65.3804 74.6994 64.8165 75.0136Z" fill="white"/>
<path d="M79.3934 55.5302C79.1152 55.2704 78.7459 55.1305 78.3654 55.1407C78.101 55.1411 77.8428 55.2212 77.6246 55.3705C77.0835 55.8093 76.5756 56.2874 76.1048 56.8009L72.2734 60.8367H73.6527L78.4867 58.0078C78.8813 57.815 79.2399 57.5558 79.5467 57.2415C79.7137 57.026 79.8036 56.7607 79.8021 56.488C79.8051 56.3086 79.7703 56.1306 79.6999 55.9656C79.6294 55.8005 79.525 55.6522 79.3934 55.5302Z" fill="white"/>
<path d="M74.4866 75.3133C74.1929 75.3133 74.046 75.1345 74.046 74.7769C74.046 74.0808 74.4419 72.4206 75.2401 69.7833L75.7574 68.0783C76.2687 66.5818 76.6135 65.0335 76.7855 63.4615C76.8053 63.1321 76.703 62.807 76.4981 62.5483C76.4102 62.4469 76.3012 62.3658 76.1789 62.3107C76.0565 62.2556 75.9235 62.2277 75.7893 62.2291C75.0856 62.2993 74.4046 62.5169 73.7906 62.8676C72.113 63.8773 70.4928 64.9795 68.9375 66.169L69.3143 67.0247C70.0069 66.5103 70.7417 66.0553 71.5109 65.6645C71.7434 65.5268 72.0023 65.4397 72.2708 65.4091C72.5135 65.4091 72.6348 65.5496 72.6348 65.8242C72.4994 67.0744 72.234 68.3071 71.843 69.5023L70.7446 73.2699C70.4463 74.2549 70.2768 75.2745 70.2402 76.3031C70.2071 76.7528 70.3214 77.2012 70.5658 77.5802C70.6778 77.7152 70.8199 77.822 70.9808 77.8919C71.1416 77.9617 71.3167 77.9928 71.4918 77.9825C71.7871 77.9771 72.0791 77.9187 72.3538 77.8101C73.0522 77.533 73.7199 77.1842 74.3462 76.7692L77.622 74.5853L77.2006 73.7488C75.668 74.8152 74.7548 75.3133 74.4866 75.3133Z" fill="white"/>
<path d="M86.887 63.9595C87.4978 63.9593 88.1035 64.0697 88.675 64.2852C89.3449 64.5575 89.9611 64.9467 90.4949 65.4346L90.6673 66.9991H91.6124C91.7463 65.71 91.9595 64.4304 92.251 63.1677C91.6421 62.8594 90.9991 62.6236 90.3353 62.4652C89.7295 62.3142 89.1077 62.237 88.4834 62.2354C86.5464 62.2354 84.5541 63.1059 82.5064 64.8471C82.0819 65.2124 81.7462 65.6697 81.5249 66.1842C81.3036 66.6988 81.2025 67.257 81.2293 67.8164C81.2133 68.2932 81.2997 68.7678 81.4825 69.2084C81.6653 69.649 81.9405 70.0453 82.2893 70.3707C83.0584 70.9332 83.9565 71.2933 84.9011 71.4179L86.2612 71.6989C86.9051 71.7875 87.5066 72.0704 87.9853 72.5099C88.3261 72.8919 88.5067 73.3904 88.4898 73.902C88.5023 74.2322 88.4411 74.5611 88.3108 74.8648C88.1805 75.1686 87.9842 75.4395 87.7363 75.658C87.1047 76.1331 86.321 76.3603 85.5332 76.2966C84.7435 76.2909 83.9648 76.1099 83.2536 75.7666C82.56 75.4549 81.9448 74.9924 81.4528 74.4128L81.3953 72.8994H80.4119C80.3066 74.3316 80.0694 75.751 79.7031 77.1395C80.5178 77.4341 81.3494 77.6793 82.1935 77.8738C82.8069 77.982 83.429 78.0333 84.0518 78.0271C85.4408 78.0475 86.8093 77.69 88.0109 76.9926C89.0206 76.4113 89.934 75.6767 90.7184 74.8151C91.3503 74.1148 91.6987 73.2041 91.6954 72.2608C91.7246 71.4147 91.4326 70.5889 90.878 69.9492C90.2023 69.278 89.3209 68.853 88.3749 68.7423L87.5256 68.6338C86.6114 68.5557 85.7323 68.2458 84.9713 67.7334C84.7489 67.5452 84.5723 67.3088 84.455 67.0422C84.3377 66.7755 84.2828 66.4856 84.2944 66.1945C84.2863 65.8954 84.3425 65.5981 84.4593 65.3227C84.5761 65.0472 84.7507 64.8001 84.9713 64.598C85.5013 64.1419 86.1894 63.9126 86.887 63.9595Z" fill="white"/>
<path d="M101.63 63.96C102.239 63.9597 102.842 64.0701 103.412 64.2856C104.081 64.558 104.698 64.9471 105.231 65.4351L105.404 66.9995H106.355C106.486 65.7101 106.7 64.4303 106.994 63.1681C106.396 62.8601 105.764 62.6243 105.11 62.4657C104.507 62.3145 103.887 62.2373 103.265 62.2358C101.323 62.2358 99.3311 63.1064 97.2877 64.8476C96.862 65.212 96.5255 65.6691 96.3041 66.1839C96.0827 66.6986 95.9823 67.2573 96.0105 67.8169C95.9933 68.2938 96.0791 68.7689 96.262 69.2096C96.4449 69.6504 96.7207 70.0466 97.0706 70.3712C97.8321 70.9354 98.7239 71.2978 99.6631 71.4248L101.023 71.7058C101.667 71.7943 102.269 72.0773 102.747 72.5168C103.09 72.8974 103.271 73.3968 103.252 73.9088C103.264 74.2391 103.203 74.568 103.073 74.8717C102.943 75.1754 102.746 75.4464 102.498 75.6649C101.867 76.14 101.083 76.3672 100.295 76.3035C99.5076 76.2977 98.7311 76.1167 98.022 75.7734C97.3262 75.4626 96.7088 75.0001 96.2149 74.4197L96.1574 72.8999H95.1932C95.091 74.3324 94.8537 75.7521 94.4844 77.14C95.299 77.4345 96.1307 77.6798 96.9748 77.8743C97.5882 77.9825 98.2102 78.0338 98.833 78.0276C100.222 78.0506 101.592 77.6929 102.792 76.9931C103.803 76.4135 104.717 75.6787 105.5 74.8156C106.131 74.1143 106.481 73.2048 106.483 72.2613C106.513 71.414 106.218 70.5871 105.659 69.9497C104.985 69.2798 104.106 68.8549 103.162 68.7428L102.275 68.6023C101.361 68.5218 100.483 68.2121 99.7206 67.702C99.499 67.5191 99.3214 67.2886 99.2009 67.0278C99.0804 66.7669 99.0201 66.4823 99.0246 66.195C99.0177 65.8899 99.0769 65.587 99.1981 65.307C99.3194 65.027 99.4998 64.7766 99.727 64.573C100.258 64.1304 100.94 63.9108 101.63 63.96Z" fill="white"/>
<path d="M117.301 54.9368C116.997 54.9329 116.696 54.9955 116.419 55.1201C116.143 55.2448 115.896 55.4285 115.698 55.6584C115.247 56.1914 115.019 56.8772 115.059 57.5741C115.053 57.7982 115.092 58.0212 115.175 58.2297C115.257 58.4382 115.381 58.6279 115.538 58.7874C115.708 58.9492 115.908 59.0751 116.128 59.1574C116.347 59.2397 116.581 59.2768 116.815 59.2663C117.118 59.2748 117.418 59.2156 117.694 59.0929C117.97 58.9703 118.216 58.7873 118.412 58.5575C118.845 58.0523 119.073 57.4028 119.05 56.7376C119.06 56.5029 119.023 56.2686 118.939 56.0491C118.856 55.8295 118.728 55.6292 118.565 55.4604C118.403 55.2886 118.207 55.1531 117.989 55.0629C117.771 54.9726 117.537 54.9296 117.301 54.9368Z" fill="white"/>
<path d="M115.182 75.3133C114.888 75.3133 114.741 75.1345 114.741 74.7769C114.741 74.0808 115.137 72.4206 115.923 69.7833L116.446 68.0783C116.958 66.5818 117.302 65.0335 117.474 63.4615C117.494 63.1321 117.392 62.807 117.187 62.5483C117.099 62.4469 116.99 62.3658 116.868 62.3107C116.745 62.2556 116.612 62.2277 116.478 62.2291C115.776 62.2986 115.097 62.5163 114.486 62.8676C112.808 63.8773 111.188 64.9795 109.633 66.169L110.016 67.0247C110.707 66.5077 111.442 66.0525 112.213 65.6645C112.442 65.5262 112.7 65.4391 112.966 65.4091C113.209 65.4091 113.33 65.5496 113.33 65.8242C113.195 67.075 112.927 68.3079 112.532 69.5023L111.472 73.2699C111.174 74.2549 111.004 75.2745 110.967 76.3031C110.934 76.7528 111.049 77.2012 111.293 77.5802C111.405 77.7152 111.547 77.822 111.708 77.8919C111.869 77.9617 112.044 77.9928 112.219 77.9825C112.51 77.9764 112.798 77.918 113.068 77.8101C113.76 77.5318 114.421 77.183 115.041 76.7692L118.311 74.5853L117.883 73.7488C116.376 74.7918 115.476 75.3133 115.182 75.3133Z" fill="white"/>
<path d="M143.616 75.2362C143.464 75.3589 143.28 75.4344 143.086 75.4533C142.843 75.4533 142.722 75.2681 142.722 74.885C142.772 74.3595 142.851 73.8372 142.958 73.3205C143.239 71.7688 143.495 70.6066 143.712 69.8275L144.35 67.4393C144.718 66.282 144.966 65.0902 145.091 63.8825C145.133 63.4346 145.025 62.9856 144.785 62.6054C144.683 62.4762 144.551 62.3733 144.401 62.3056C144.251 62.2378 144.087 62.207 143.923 62.2158C142.964 62.2943 142.035 62.5914 141.209 63.0843C139.939 63.7864 138.79 64.6876 137.805 65.7535C136.51 67.1408 135.414 68.701 134.548 70.3895C134.872 69.1762 135.321 67.5415 135.896 65.4853C136.059 64.8388 136.16 64.178 136.196 63.5121C136.219 63.1615 136.104 62.8157 135.877 62.5479C135.769 62.4366 135.638 62.3495 135.494 62.2922C135.35 62.235 135.195 62.209 135.04 62.2158C133.878 62.2158 132.318 63.08 130.359 64.8084C128.624 66.4225 127.162 68.3073 126.03 70.3895L126.669 67.5734C126.815 67.1073 127.052 66.0983 127.384 64.5338C127.485 64.0933 127.547 63.6445 127.569 63.1928C127.575 63.0627 127.554 62.9327 127.508 62.8108C127.462 62.6889 127.391 62.5777 127.301 62.484C127.209 62.3941 127.1 62.324 126.98 62.2778C126.861 62.2317 126.733 62.2106 126.605 62.2158C126.305 62.2308 126.011 62.3001 125.736 62.4202C125.095 62.6865 124.488 63.0296 123.929 63.4419C123.444 63.7654 122.301 64.6168 120.5 65.9961L120.973 66.8071C122.207 65.7599 123.022 65.2363 123.418 65.2363C123.472 65.2333 123.526 65.2448 123.575 65.2694C123.623 65.2941 123.664 65.3311 123.693 65.3767C123.787 65.6075 123.828 65.8561 123.814 66.1047C123.774 66.7355 123.691 67.3627 123.565 67.9821C123.259 69.6849 122.856 71.4665 122.358 73.3269C121.996 74.6721 121.696 75.7002 121.458 76.4112L121.075 77.6244L121.375 78.0076C122.522 77.6655 123.709 77.4744 124.906 77.4393C125.039 76.2112 125.28 74.9974 125.628 73.8122C126.036 72.2722 126.664 70.7991 127.492 69.438C128.306 67.9871 129.352 66.6797 130.589 65.5683C130.991 65.178 131.504 64.9234 132.058 64.8403C132.138 64.8368 132.218 64.8524 132.292 64.8856C132.365 64.9189 132.429 64.9691 132.48 65.0319C132.597 65.1898 132.654 65.3848 132.639 65.5811C132.578 66.5397 132.441 67.492 132.23 68.4291C131.934 69.9909 131.557 71.5362 131.1 73.0587C130.34 75.4916 129.823 77.0178 129.6 77.6244L129.976 78.0523C131.091 77.8193 132.223 77.6763 133.361 77.6244C133.495 76.3934 133.759 75.1799 134.146 74.0038C134.527 72.6737 135.052 71.389 135.711 70.1724C136.281 69.1527 136.971 68.2051 137.767 67.3499C138.366 66.6599 139.071 66.0693 139.855 65.6002C140.097 65.4612 140.368 65.3803 140.647 65.364C140.721 65.3622 140.794 65.3781 140.861 65.4103C140.927 65.4425 140.985 65.4901 141.03 65.5492C141.136 65.7094 141.185 65.9004 141.17 66.0919C141.122 66.6807 141.022 67.2641 140.87 67.8352L139.101 74.7254C138.937 75.3521 138.836 75.994 138.801 76.6411C138.776 77.0264 138.897 77.407 139.14 77.7075C139.248 77.8283 139.381 77.9241 139.53 77.9881C139.679 78.0521 139.84 78.0827 140.002 78.0778C140.426 78.047 140.843 77.9455 141.234 77.7777C141.954 77.4816 142.641 77.1113 143.284 76.673L145.985 74.7573L145.557 73.9655C144.941 74.4342 144.292 74.8588 143.616 75.2362Z" fill="white"/>
<path d="M163.071 64.432C162.67 63.7124 162.047 63.1414 161.296 62.8036C160.35 62.3911 159.325 62.1947 158.294 62.2289C156.561 62.2768 154.876 62.8148 153.435 63.7806C152.035 64.5373 150.881 65.6783 150.108 67.0692C149.185 68.9789 148.705 71.0721 148.703 73.1931C148.703 74.8087 149.112 76.0156 149.929 76.8265C150.747 77.6375 152.024 78.0079 153.729 78.0079C154.946 78.0119 156.149 77.7481 157.254 77.2352C158.631 76.6494 159.896 75.8307 160.996 74.815C161.829 73.876 162.458 72.7734 162.841 71.5775C163.361 70.1886 163.632 68.7185 163.639 67.2353C163.684 66.2683 163.488 65.3053 163.071 64.432ZM159.048 72.2991C158.524 74.0019 157.916 75.1663 157.222 75.7921C156.727 76.2509 156.076 76.5043 155.402 76.5009C154.996 76.5319 154.588 76.473 154.207 76.3284C153.826 76.1838 153.482 75.9571 153.199 75.6643C152.713 75.1024 152.471 74.1637 152.471 72.8483C152.521 70.9965 152.839 69.1617 153.416 67.4013C153.674 66.2772 154.222 65.2403 155.006 64.3936C155.557 63.8844 156.28 63.6017 157.03 63.6018C157.414 63.5835 157.797 63.652 158.151 63.8024C158.505 63.9528 158.82 64.1811 159.073 64.4703C159.652 65.2396 159.931 66.1926 159.859 67.1523C159.849 68.8989 159.576 70.6341 159.048 72.2991Z" fill="white"/>
<path d="M61.25 86.0786H102.75" stroke="white"/>
<path d="M45.96 109.079L48.128 97.8786H49.472L52.344 105.423L55.2 97.8786H56.544L58.72 109.079H57.024L55.576 101.583L52.896 108.655H51.776L49.104 101.583L47.656 109.079H45.96ZM69.9506 109.079V97.8786H76.9026V99.5426H71.6146V102.247H75.8706V103.911H71.6146V107.415H76.9026V109.079H69.9506ZM88.3319 109.079V97.8786H90.1319L95.2759 106.071V97.8786H96.9399V109.079H95.1399L89.9959 100.887V109.079H88.3319ZM112.895 109.287C111.999 109.287 111.218 109.068 110.551 108.631C109.89 108.193 109.375 107.607 109.007 106.871C108.644 106.129 108.463 105.308 108.463 104.407V97.8786H110.127V104.407C110.127 104.993 110.234 105.532 110.447 106.023C110.666 106.508 110.98 106.897 111.391 107.191C111.807 107.479 112.308 107.623 112.895 107.623C113.498 107.623 114.004 107.479 114.415 107.191C114.826 106.897 115.135 106.508 115.343 106.023C115.556 105.532 115.663 104.993 115.663 104.407V97.8786H117.327V104.407C117.327 105.084 117.223 105.719 117.015 106.311C116.807 106.897 116.508 107.415 116.119 107.863C115.73 108.311 115.263 108.66 114.719 108.911C114.175 109.161 113.567 109.287 112.895 109.287ZM112.463 96.9986L113.103 94.6946H114.767L113.583 96.9986H112.463Z" fill="white"/>
</g>
<defs>
<clipPath id="clip0_24839_60497">
<rect width="163.286" height="113.079" fill="white" transform="translate(0.359375)"/>
</clipPath>
</defs>
</svg>
