<svg width="54" height="62" viewBox="0 0 54 62" fill="none" xmlns="http://www.w3.org/2000/svg">
<path d="M50.5801 27.2907C50.3977 27.1803 50.2397 27.0339 50.1156 26.8605C49.9916 26.6871 49.9042 26.4903 49.8586 26.282C49.2772 18.11 43.2346 11.8596 35.8191 9.13715C35.6836 9.08873 35.5648 9.00254 35.4766 8.88877C35.3885 8.775 35.3348 8.63838 35.3218 8.49506C35.1396 6.39216 34.173 4.43476 32.6139 3.01187C31.0548 1.58897 29.0174 0.804747 26.9067 0.815041C24.7959 0.825336 22.7663 1.6294 21.2212 3.06743C19.676 4.50547 18.7285 6.4722 18.5669 8.57678C18.5547 8.72153 18.5011 8.8597 18.4125 8.97481C18.3239 9.08991 18.204 9.17707 18.0672 9.22587C10.7568 11.897 4.81688 17.7504 4.11642 25.9201C4.05805 26.6813 3.79888 27.0525 3.16614 27.4378C-0.233416 29.5088 -0.784442 34.4914 2.16915 36.9149C3.03071 37.6154 3.39028 38.3906 3.62377 39.4016C5.00834 45.4115 6.44194 51.4097 7.8522 57.4127C8.86552 62.5213 14.9875 60.7025 18.7536 60.9827C24.2896 61.041 36.16 60.9827 41.7053 60.9943C43.753 60.9943 45.364 59.925 45.8427 58.0594C47.3276 52.3857 49.2586 43.4666 50.5497 38.3882C50.6213 38.0591 50.8064 37.7656 51.0727 37.5594C54.3135 35.7078 54.8552 29.817 50.5801 27.2907ZM26.9467 2.42443C28.4009 2.42646 29.8161 2.89567 30.9834 3.76291C32.1508 4.63015 33.0087 5.84951 33.4306 7.24124C33.4645 7.36637 33.4656 7.49814 33.4337 7.62381C33.4019 7.74949 33.3382 7.86483 33.2488 7.95871C33.1593 8.05259 33.0472 8.12183 32.9233 8.15975C32.7993 8.19767 32.6676 8.20298 32.541 8.17519L32.2701 8.11682C28.658 7.3804 24.9297 7.42977 21.3383 8.26158C21.2109 8.29182 21.0778 8.28835 20.9521 8.25152C20.8264 8.21468 20.7125 8.14574 20.6215 8.05149C20.5306 7.95724 20.4657 7.84092 20.4334 7.714C20.401 7.58707 20.4023 7.45392 20.4371 7.32763C20.8444 5.9154 21.6994 4.67368 22.8734 3.78939C24.0474 2.90509 25.4769 2.42607 26.9467 2.42443ZM11.6907 59.1615C10.647 59.1218 9.94189 58.4283 9.70607 57.4524C8.27948 51.251 6.64741 45.0403 5.35857 38.8272C5.32733 38.6761 5.34302 38.5191 5.40354 38.3773C5.46405 38.2354 5.56649 38.1154 5.69712 38.0333C7.58836 36.8496 9.50994 35.1872 11.6907 36.6721C12.7064 37.4636 14.5392 37.6061 14.9595 38.9509C14.9737 38.9973 14.9831 39.0451 14.9875 39.0934C15.7534 45.5446 16.4702 51.8744 17.201 58.3396C17.2131 58.4452 17.2029 58.5521 17.1709 58.6535C17.139 58.7548 17.086 58.8483 17.0155 58.9278C16.945 59.0073 16.8586 59.0711 16.7618 59.115C16.665 59.1589 16.5601 59.1819 16.4538 59.1825C14.8007 59.2012 13.241 59.2292 11.6907 59.1615ZM25.2025 59.1872C23.832 59.1872 21.0371 59.1731 19.7483 59.1638C19.5638 59.1622 19.3862 59.0931 19.2491 58.9697C19.1119 58.8463 19.0245 58.677 19.0035 58.4937C18.2283 51.809 17.4648 45.2177 16.72 38.7805C16.7059 38.6451 16.7289 38.5084 16.7865 38.385C16.8441 38.2617 16.9341 38.1563 17.0469 38.08C21.0161 35.3716 21.6535 35.6378 25.6041 38.1337C25.712 38.2021 25.8008 38.2966 25.8624 38.4084C25.9241 38.5202 25.9565 38.6458 25.9567 38.7735V58.4423C25.957 58.5419 25.9375 58.6404 25.8995 58.7324C25.8614 58.8243 25.8054 58.9078 25.7348 58.978C25.6642 59.0481 25.5804 59.1036 25.4883 59.1411C25.3961 59.1786 25.2974 59.1974 25.1979 59.1965L25.2025 59.1872ZM33.6757 59.2549C32.0273 59.1988 30.3789 59.2268 28.6861 59.2339C28.5867 59.2342 28.4882 59.2148 28.3963 59.1769C28.3043 59.139 28.2208 59.0833 28.1505 59.013C28.0802 58.9427 28.0245 58.8591 27.9866 58.7672C27.9487 58.6753 27.9293 58.5768 27.9296 58.4774V38.7875C27.9287 38.6612 27.9592 38.5366 28.0183 38.425C28.0774 38.3133 28.1632 38.2181 28.2682 38.1478C32.2071 35.6471 32.9146 35.3693 36.8488 38.0614C36.9607 38.1385 37.05 38.244 37.1074 38.3672C37.1649 38.4903 37.1884 38.6265 37.1757 38.7618C36.4752 45.129 35.616 51.6806 34.9155 58.0734C34.8268 58.9677 34.5863 59.2946 33.6711 59.2642L33.6757 59.2549ZM46.8723 46.2007C45.9781 48.7433 44.9624 58.2555 42.763 58.984C42.713 59.0002 42.6613 59.0104 42.6089 59.0144C40.8951 59.1988 39.151 59.1218 37.3928 59.0984C37.2871 59.0965 37.183 59.0725 37.0872 59.028C36.9913 58.9834 36.9059 58.9192 36.8364 58.8395C36.7668 58.7599 36.7148 58.6666 36.6835 58.5656C36.6523 58.4646 36.6426 58.3582 36.655 58.2532C37.4045 51.83 38.1376 45.4862 38.9198 39.0724C38.9256 39.0183 38.9374 38.9651 38.9548 38.9136C39.4031 37.6411 41.1659 37.4893 42.1466 36.7165C44.3717 35.1615 46.312 36.8379 48.2592 38.0614C48.3926 38.1446 48.4965 38.2675 48.5564 38.4128C48.6163 38.5581 48.6292 38.7186 48.5931 38.8716C48.2476 40.3402 47.3907 43.8915 46.8957 46.1213C46.8881 46.1514 46.8787 46.181 46.8677 46.21L46.8723 46.2007ZM51.1288 35.1124C48.1215 38.9883 46.0388 31.2599 40.4795 35.7639C40.4529 35.7859 40.4248 35.8062 40.3954 35.8246C36.0152 38.5143 34.6167 31.3463 29.0387 35.7569L28.9686 35.8129C24.5651 38.5307 23.1525 31.3463 17.5979 35.7569L17.5419 35.7966C16.1129 36.7468 14.9035 36.7468 13.4862 35.8129L13.4302 35.7732C7.86387 31.3767 6.30652 38.4209 3.13111 35.4463C1.1138 33.3846 1.83293 29.9431 4.62075 28.6496C5.45196 28.2643 5.78818 27.7716 5.82087 26.8891C7.58602 3.36538 47.0661 4.00747 48.0958 27.0805C48.0958 27.8884 48.5207 28.29 49.2469 28.6215C51.8339 29.81 52.6838 32.7519 51.1778 35.0401C51.1638 35.0657 51.1474 35.0899 51.1288 35.1124Z" fill="white"/>
<path d="M29.4543 13.2467C29.2955 14.253 31.2801 17.335 32.548 16.3217C33.2741 15.1986 30.0543 11.4909 29.4543 13.2467Z" fill="white"/>
<path d="M11.4377 27.9022C8.67325 27.4142 12.7149 33.3587 13.5718 31.0285C13.63 30.8662 13.6349 30.6895 13.5858 30.5242C13.3383 29.644 12.5585 28.8174 11.8767 28.1356C11.7579 28.0145 11.6046 27.9329 11.4377 27.9022Z" fill="white"/>
<path d="M18.4904 19.5718C20.7295 19.5578 17.8763 15.5885 16.7813 15.892C15.1095 16.31 17.4958 19.336 18.4904 19.5718Z" fill="white"/>
<path d="M27.413 20.5008C26.0681 19.0415 25.0361 21.9344 24.324 22.7843C23.9947 26.1255 28.0014 21.4955 27.413 20.5008Z" fill="white"/>
<path d="M30.383 27.9399C29.393 27.508 28.5011 29.4809 27.9034 30.3588C27.8085 30.4965 27.7558 30.6587 27.7516 30.8258C27.6745 33.2144 30.4133 30.4966 30.8243 28.9159C30.8785 28.7273 30.864 28.5256 30.7831 28.3467C30.7023 28.1679 30.5604 28.0237 30.383 27.9399Z" fill="white"/>
<path d="M19.2214 25.2522C18.2361 24.832 17.0757 26.3613 16.5877 27.5871C16.5207 27.7622 16.5131 27.9545 16.5662 28.1343C16.6192 28.3142 16.7299 28.4716 16.8812 28.5823C17.0326 28.693 17.2161 28.7508 17.4036 28.747C17.591 28.7431 17.772 28.6776 17.9186 28.5607C18.9319 27.7318 19.8332 25.8686 19.2214 25.2522Z" fill="white"/>
<path d="M42.8742 28.2715C41.8165 28.9719 40.9106 30.625 41.2165 31.5636C41.987 32.2174 43.6821 30.5877 44.1467 29.2685C44.2051 29.1002 44.2095 28.918 44.1592 28.7472C44.1089 28.5763 44.0066 28.4255 43.8664 28.3157C43.7263 28.2058 43.5553 28.1426 43.3774 28.1346C43.1995 28.1267 43.0236 28.1746 42.8742 28.2715Z" fill="white"/>
<path d="M35.3229 21.855C32.9624 21.8387 35.8086 25.0958 36.6445 25.7636C39.4346 25.5581 36.1425 22.6956 35.3229 21.855Z" fill="white"/>
</svg>
